<svg xmlns="http://www.w3.org/2000/svg" viewBox="0 0 24 24">
  <path d="M16.286,3.809L3.989,16.089c-0.247,0.247-0.412,0.564-0.471,0.908l-0.503,2.918c-0.109,0.631,0.44,1.18,1.072,1.07l2.884-0.502c0.342-0.06,0.658-0.223,0.904-0.468L20.191,7.714L16.286,3.809z" opacity=".35" fill="#FFF" />
  <path d="M14.517,5.574L3.989,16.089c-0.247,0.247-0.412,0.564-0.471,0.908l-0.196,1.136l2.543,2.543l1.105-0.192c0.342-0.06,0.658-0.223,0.904-0.468l10.55-10.537L14.517,5.574z" 
    fill="#FFF" />
  <path d="M20.045,7.86l0.147-0.146c1.078-1.078,1.078-2.827,0-3.905c-1.078-1.078-2.827-1.078-3.905,0L16.14,3.955L20.045,7.86z" fill="#FFF" />
  <path d="M20.414,16.172L7.828,3.586C7.047,2.805,5.781,2.805,5,3.586L3.586,5c-0.781,0.781-0.781,2.047,0,2.828l12.586,12.586c0.781,0.781,2.047,0.781,2.828,0L20.414,19C21.195,18.219,21.195,16.953,20.414,16.172z" opacity=".35" fill="#FFF" />
</svg>